<svg width="33" height="33" viewBox="0 0 33 33" fill="none" xmlns="http://www.w3.org/2000/svg">
<path d="M25.9284 4.125H7.07163C6.29036 4.12573 5.54129 4.43641 4.98885 4.98885C4.43641 5.54129 4.12573 6.29036 4.125 7.07163V25.9284C4.125 27.555 5.44638 28.875 7.07163 28.875H25.9284C26.7096 28.8743 27.4587 28.5636 28.0111 28.0111C28.5636 27.4587 28.8743 26.7096 28.875 25.9284V7.07163C28.8743 6.29036 28.5636 5.54129 28.0111 4.98885C27.4587 4.43641 26.7096 4.12573 25.9284 4.125ZM23.5744 14.9229C22.7071 15.0071 21.8344 14.8294 21.0691 14.4128C20.4236 14.0647 19.8753 13.5609 19.4741 12.947V19.745C19.4741 20.7387 19.1795 21.7101 18.6274 22.5363C18.0753 23.3626 17.2906 24.0065 16.3726 24.3868C15.4545 24.7671 14.4443 24.8666 13.4697 24.6727C12.4951 24.4788 11.5998 24.0003 10.8972 23.2977C10.1945 22.595 9.71603 21.6998 9.52216 20.7252C9.3283 19.7506 9.4278 18.7404 9.80807 17.8223C10.1883 16.9042 10.8323 16.1196 11.6586 15.5675C12.4848 15.0154 13.4562 14.7208 14.4499 14.7208C14.5544 14.7208 14.6561 14.7304 14.7593 14.7359V17.2122C14.6561 17.1999 14.5557 17.1806 14.4499 17.1806C13.7698 17.1806 13.1175 17.4508 12.6366 17.9317C12.1557 18.4126 11.8855 19.0649 11.8855 19.745C11.8855 20.4251 12.1557 21.0774 12.6366 21.5583C13.1175 22.0392 13.7698 22.3094 14.4499 22.3094C15.8661 22.3094 17.1174 21.1943 17.1174 19.778L17.1421 8.23075H19.5112C19.6197 9.25984 20.0862 10.2181 20.8294 10.9382C21.5726 11.6582 22.5451 12.0943 23.5771 12.1701V14.9229" fill="white"/>
</svg>
